<svg width="474" height="315" viewBox="0 0 474 315" fill="none" xmlns="http://www.w3.org/2000/svg">
<g clip-path="url(#clip0_613_80)">
<path d="M240.125 88.4629C235.898 81.4728 230.89 74.0094 223.047 71.7269C213.964 69.0837 204.634 74.3346 196.719 79.5161C173.051 95.0126 150.258 111.806 128.444 129.82L128.468 130.092C145.451 128.921 162.433 127.749 179.416 126.578C191.686 125.732 204.377 124.769 215.221 118.965C219.335 116.762 223.346 113.82 228.009 113.615C233.802 113.36 238.852 117.406 242.822 121.633C266.302 146.636 273.096 184.871 299.439 206.838C282.828 165.874 262.995 126.291 240.125 88.4629V88.4629Z" fill="#F2F2F2"/>
<path d="M384.452 300.534C381.856 297.255 380.795 296.487 378.234 293.178C357.379 266.206 337.778 238.323 319.429 209.529C306.966 189.973 295.121 170.041 283.894 149.734C278.549 140.08 273.351 130.35 268.299 120.544C264.379 112.941 260.546 105.293 256.801 97.5985C255.73 95.4009 254.689 93.1932 253.654 90.9804C251.213 85.777 248.819 80.5483 246.247 75.4155C243.317 69.5654 239.751 63.4324 234.37 59.502C231.922 57.6399 228.994 56.5132 225.928 56.2536C221.548 55.9707 217.507 57.7793 213.708 59.7546C185.912 74.2485 159.89 92.4203 136.353 113.098C112.756 133.822 91.6641 157.235 73.5073 182.86C72.9518 183.653 71.6382 182.895 72.1989 182.097C74.4066 178.975 76.6581 175.886 78.9534 172.832C107.493 134.875 142.487 102.234 182.336 76.4006C189.04 72.056 195.87 67.9151 202.826 63.978C206.332 61.9926 209.853 60.0324 213.435 58.1936C216.946 56.39 220.675 54.7683 224.686 54.7077C238.336 54.4956 245.404 69.9544 250.259 80.3563C251.784 83.6299 253.328 86.8934 254.891 90.1469C260.797 102.499 266.93 114.738 273.29 126.864C277.215 134.351 281.227 141.794 285.324 149.194C298.075 172.235 311.627 194.811 325.982 216.92C344.997 246.205 363.861 272.076 385.523 299.463C386.12 300.22 385.054 301.302 384.452 300.534Z" fill="#E4E4E4"/>
<path d="M135.004 105.464C134.211 104.58 133.423 103.696 132.625 102.812C126.33 95.8505 119.576 88.9698 110.932 84.9788C106.811 83.0158 102.311 81.9729 97.7465 81.9224C93.0281 81.9376 88.4158 83.1753 84.056 84.9081C81.9948 85.7316 79.979 86.6662 77.9937 87.6614C75.7253 88.8031 73.4973 90.0207 71.2797 91.2483C67.1168 93.5519 63.008 95.9566 58.9531 98.4624C50.8851 103.449 43.0698 108.815 35.5071 114.563C31.5867 117.543 27.7472 120.622 23.9886 123.798C20.4927 126.748 17.0676 129.777 13.7131 132.886C12.9958 133.548 11.9247 132.477 12.642 131.815C13.5261 130.992 14.4203 130.173 15.3145 129.365C17.8405 127.081 20.4069 124.842 23.0137 122.646C27.7674 118.635 32.6442 114.778 37.6441 111.077C45.419 105.318 53.4616 99.9493 61.7719 94.9715C65.9247 92.486 70.1346 90.1049 74.4016 87.8281C75.69 87.1411 76.9935 86.4692 78.312 85.8326C81.3037 84.3235 84.4123 83.0581 87.6074 82.0487C92.1335 80.5845 96.9222 80.1141 101.647 80.6696C106.208 81.3331 110.603 82.8535 114.6 85.1506C123.087 89.8944 129.67 97.2297 136.075 104.388C136.722 105.116 135.656 106.192 135.004 105.464Z" fill="#E4E4E4"/>
<path d="M308.903 177.604L329.24 170.166L339.338 166.473C342.626 165.27 345.907 163.9 349.307 163.039C352.261 162.195 355.398 162.235 358.33 163.154C360.944 164.122 363.338 165.606 365.367 167.517C367.441 169.426 369.371 171.487 371.14 173.681C373.338 176.323 375.504 178.993 377.68 181.654C386.659 192.635 395.58 203.665 404.442 214.741C413.304 225.818 422.106 236.942 430.85 248.113C439.614 259.311 448.319 270.556 456.963 281.847C458.022 283.23 459.08 284.614 460.137 285.999C460.721 286.764 462.038 286.01 461.445 285.234C452.738 273.829 443.969 262.47 435.14 251.158C426.289 239.82 417.377 228.529 408.403 217.286C399.43 206.043 390.396 194.85 381.302 183.705C379.036 180.928 376.767 178.155 374.494 175.384C372.576 173.047 370.68 170.685 368.577 168.51C364.717 164.517 359.894 160.989 354.12 160.893C350.726 160.837 347.44 161.914 344.287 163.055C340.887 164.285 337.495 165.538 334.099 166.78L313.62 174.27L308.5 176.143C307.591 176.475 307.984 177.94 308.903 177.604L308.903 177.604Z" fill="#E4E4E4"/>
<path d="M108.255 93.7386C97.9205 88.4269 84.6851 89.4673 75.188 96.1034C93.303 99.2287 111.22 103.41 128.847 108.627C121.527 104.338 115.801 97.6168 108.255 93.7386Z" fill="#F2F2F2"/>
<path d="M75.0863 96.085L73.0967 97.7022C73.7697 97.1361 74.4693 96.6055 75.188 96.1033C75.1541 96.0974 75.1202 96.0908 75.0863 96.085Z" fill="#F2F2F2"/>
<path d="M364.602 177.679C362.6 175.242 360.436 172.69 357.441 171.7L354.646 171.811C375.927 209.416 404.669 242.275 439.108 268.371C414.273 238.14 389.437 207.91 364.602 177.679Z" fill="#F2F2F2"/>
<path d="M190.755 157.576C192.049 162.276 194.964 166.367 198.984 169.126C200.538 170.184 202.377 171.199 202.908 173.002C203.188 174.152 203.015 175.365 202.427 176.391C201.839 177.404 201.124 178.338 200.299 179.169L200.224 179.452C196.367 177.166 192.698 174.275 190.567 170.331C188.437 166.386 188.14 161.216 190.755 157.576" fill="#F2F2F2"/>
<path d="M319.157 269.445C320.45 274.145 323.365 278.236 327.385 280.994C328.939 282.053 330.778 283.068 331.31 284.871C331.589 286.021 331.417 287.234 330.828 288.26C330.24 289.273 329.525 290.207 328.7 291.038L328.625 291.321C324.768 289.035 321.099 286.144 318.969 282.2C316.838 278.255 316.541 273.085 319.157 269.445" fill="#F2F2F2"/>
<path d="M62.9053 261.729C64.199 266.43 67.1137 270.521 71.1335 273.279C72.6877 274.338 74.5264 275.353 75.0581 277.156C75.3377 278.306 75.1654 279.519 74.5766 280.545C73.9889 281.558 73.2738 282.492 72.4488 283.323L72.3735 283.605C68.5168 281.32 64.8477 278.429 62.7173 274.484C60.5869 270.54 60.2895 265.37 62.9053 261.729" fill="#F2F2F2"/>
<path d="M357.787 56.21C373.309 56.21 385.892 43.627 385.892 28.105C385.892 12.583 373.309 0 357.787 0C342.265 0 329.682 12.583 329.682 28.105C329.682 43.627 342.265 56.21 357.787 56.21Z" fill="#516FD5"/>
<path d="M408.506 6.54157C394.885 4.70045 379.334 12.0627 375.804 25.3463C374.914 22.9845 373.297 20.9666 371.185 19.5843C369.074 18.2019 366.577 17.5266 364.057 17.6559C361.536 17.7853 359.122 18.7126 357.163 20.3038C355.204 21.8951 353.801 24.0679 353.158 26.5084L354.718 27.6252C383.907 33.9374 414.122 33.8008 443.253 27.225C433.779 17.2676 422.127 8.38266 408.506 6.54157Z" fill="#F0F0F0"/>
<path d="M350.092 44.015C336.471 42.1738 320.92 49.536 317.39 62.8197C316.5 60.4579 314.883 58.44 312.771 57.0577C310.66 55.6753 308.163 55 305.643 55.1293C303.122 55.2587 300.708 56.186 298.749 57.7772C296.79 59.3684 295.387 61.5413 294.744 63.9818L296.304 65.0986C325.493 71.4108 355.708 71.2742 384.839 64.6983C375.365 54.7409 363.713 45.8561 350.092 44.015Z" fill="#F0F0F0"/>
<path d="M468.974 51.1006C468.918 51.1007 468.862 51.092 468.808 51.0747C323.099 4.99455 194.677 11.0204 112.602 24.1897C101.432 25.9813 90.2327 28.0505 79.3144 30.3404C76.527 30.9243 73.6352 31.5502 70.7194 32.2019C67.2373 32.9774 63.8014 33.776 60.5067 34.5747C59.0838 34.9116 57.6887 35.2511 56.3214 35.5934C54.2503 36.1047 52.1488 36.6374 49.896 37.2229C47.3788 37.872 44.8212 38.5528 42.2926 39.2464C42.2834 39.2497 42.2739 39.2524 42.2643 39.2545L42.2646 39.2551C39.4086 40.0348 36.5676 40.8373 33.8203 41.6386C32.3334 42.068 30.8975 42.4916 29.5223 42.9097C29.3686 42.9523 29.2325 42.9931 29.0944 43.0351L28.799 43.125C28.6278 43.1772 28.4589 43.2283 28.2899 43.2768L28.2791 43.28L28.2794 43.2805L27.8322 43.4194C27.2989 43.5809 26.7784 43.7385 26.2667 43.8957C12.7405 48.0654 5.30468 51.0317 5.23122 51.0608C5.16404 51.0877 5.09223 51.1011 5.01986 51.1003C4.9475 51.0995 4.87601 51.0844 4.80947 51.0559C4.74293 51.0275 4.68264 50.9862 4.63206 50.9344C4.58148 50.8827 4.54158 50.8215 4.51466 50.7543C4.48773 50.6871 4.4743 50.6153 4.47513 50.5429C4.47596 50.4706 4.49104 50.3991 4.5195 50.3325C4.54796 50.266 4.58924 50.2057 4.641 50.1551C4.69275 50.1046 4.75396 50.0647 4.82114 50.0377C4.89514 50.0087 12.3673 47.0273 25.9427 42.842C26.4564 42.6843 26.9781 42.5266 27.513 42.3646L27.9285 42.2355C27.9428 42.2301 27.957 42.2258 27.9716 42.2215C28.1397 42.1736 28.3076 42.1224 28.4782 42.0708L28.7742 41.9809C28.9217 41.9362 29.067 41.8921 29.2158 41.8512C30.5816 41.4357 32.0223 41.0111 33.513 40.5801C36.2614 39.7782 39.1051 38.9758 41.9633 38.1949C41.9721 38.1917 41.9813 38.1895 41.9902 38.1869V38.1863C44.5276 37.4905 47.0946 36.807 49.62 36.1558C51.8762 35.5698 53.9818 35.0359 56.0564 34.5236C57.4295 34.1818 58.8273 33.8415 60.2498 33.5027C63.5482 32.703 66.991 31.9033 70.4794 31.1261C73.3998 30.4739 76.2964 29.8464 79.0884 29.262C90.0236 26.9683 101.241 24.8958 112.427 23.1016C194.62 9.91337 323.226 3.87785 469.14 50.0242C469.265 50.0638 469.373 50.147 469.442 50.2588C469.511 50.3705 469.539 50.5034 469.519 50.6335C469.499 50.7635 469.433 50.8821 469.333 50.9678C469.233 51.0534 469.106 51.1006 468.974 51.1006V51.1006Z" fill="#CCCCCC"/>
<path d="M144.927 231.365C144.737 230.807 144.415 230.302 143.991 229.893C143.834 229.748 143.664 229.617 143.484 229.502C142.045 228.543 139.896 228.328 138.529 229.502C138.392 229.622 138.264 229.752 138.149 229.893C137.741 230.395 137.322 230.885 136.893 231.365C136.187 232.169 135.465 232.946 134.71 233.701C134.495 233.911 134.281 234.126 134.06 234.335C133.933 234.462 133.807 234.583 133.68 234.704C133.195 235.167 132.699 235.614 132.197 236.055C131.933 236.292 131.668 236.523 131.398 236.749C130.996 237.085 130.594 237.421 130.186 237.746C130.147 237.774 130.109 237.801 130.07 237.835C130.059 237.84 130.054 237.851 130.043 237.857C130.037 237.857 130.032 237.857 130.026 237.868C130.011 237.873 129.998 237.883 129.988 237.895C129.866 237.978 129.784 238.033 129.723 238.083C129.745 238.072 129.767 238.055 129.789 238.044C129.69 238.121 129.585 238.198 129.486 238.275C128.522 238.986 127.535 239.67 126.527 240.309C124.032 241.906 121.411 243.297 118.69 244.47C118.509 244.541 118.321 244.618 118.134 244.69C111.011 247.608 103.284 248.747 95.6224 248.007C94.8398 247.947 94.0573 247.864 93.2748 247.759C92.371 247.627 91.4727 247.467 90.58 247.286C87.1813 246.607 83.8557 245.603 80.6495 244.288C76.6389 242.451 72.8243 240.213 69.2643 237.609C68.7132 237.217 68.1566 236.826 67.6 236.446C68.2337 234.892 68.8565 233.338 69.4627 231.773C69.7657 231.018 70.0578 230.263 70.3444 229.502C72.5983 223.644 74.7144 217.731 76.7424 211.796C78.7924 205.784 80.7267 199.737 82.5453 193.655C82.7326 193.037 82.9145 192.42 83.0908 191.803C84.0442 188.59 84.959 185.37 85.8352 182.143C85.9179 181.828 86.006 181.52 86.0832 181.206C86.3367 180.28 86.5846 179.354 86.8271 178.428C87.3782 176.34 86.1328 173.843 83.9395 173.342C82.8835 173.071 81.7636 173.221 80.8158 173.759C79.868 174.298 79.1663 175.184 78.8585 176.229C78.6216 177.122 78.3846 178.009 78.1421 178.902C76.9794 183.217 75.756 187.517 74.472 191.803C74.2846 192.42 74.0972 193.037 73.9099 193.655C71.0773 202.99 67.9674 212.231 64.5801 221.379C64.1723 222.487 63.759 223.591 63.3402 224.691C63.1363 225.231 62.9324 225.771 62.723 226.311C62.3207 227.375 61.9074 228.439 61.4941 229.502C61.2571 230.125 61.0146 230.748 60.7721 231.365C60.6123 231.756 60.458 232.147 60.3037 232.533C58.7325 231.969 57.1046 231.577 55.4487 231.365L55.1842 231.332C53.9004 231.177 52.6021 231.188 51.3211 231.365C49.404 231.589 47.5593 232.231 45.9177 233.246C44.276 234.261 42.8773 235.624 41.8205 237.239C39.1919 241.378 39.225 247.297 42.9117 250.812C46.7086 254.433 52.4564 254.405 56.9256 252.141C59.294 250.859 61.291 248.987 62.723 246.707C63.2715 245.88 63.7756 245.025 64.2329 244.144C64.3486 244.222 64.4644 244.299 64.5801 244.381C65.0209 244.69 65.4618 245.004 65.8972 245.313C68.4338 247.15 71.1069 248.792 73.8933 250.223C79.8846 253.201 86.3339 255.152 92.9717 255.993C93.1205 256.009 93.2637 256.031 93.4125 256.048C94.1455 256.141 94.8839 256.213 95.6224 256.274C106.215 257.072 116.821 254.904 126.251 250.013C127.05 249.6 127.842 249.167 128.626 248.713C129.844 248.007 131.035 247.258 132.197 246.464C132.831 246.035 133.448 245.599 134.06 245.142C136.733 243.173 139.225 240.969 141.505 238.556C142.37 237.647 143.199 236.708 143.991 235.74C144.739 234.948 145.171 233.909 145.203 232.82C145.199 232.322 145.105 231.829 144.927 231.365V231.365ZM53.6743 244.492C53.79 244.409 53.9057 244.321 54.0159 244.233C53.9829 244.315 53.823 244.409 53.6743 244.492H53.6743ZM55.4432 242.712C55.3165 242.855 55.2007 242.998 55.074 243.141C54.6884 243.573 54.2741 243.978 53.8341 244.354C53.7734 244.409 53.7073 244.464 53.6412 244.514C53.6405 244.514 53.6397 244.514 53.6391 244.514C53.6384 244.514 53.6378 244.515 53.6373 244.515C53.6367 244.516 53.6363 244.516 53.6361 244.517C53.6358 244.518 53.6357 244.518 53.6357 244.519C53.5561 244.555 53.4788 244.595 53.4042 244.64C53.1672 244.784 52.9248 244.916 52.6768 245.037C52.1913 245.216 51.6917 245.354 51.1834 245.45C50.7927 245.479 50.4007 245.483 50.0096 245.461H49.9986C49.7286 245.402 49.462 245.328 49.1995 245.241C49.0672 245.175 48.9405 245.098 48.8137 245.021C48.7641 244.977 48.72 244.932 48.6925 244.905C48.6387 244.856 48.5889 244.802 48.5437 244.745C48.5438 244.744 48.5436 244.744 48.5433 244.743C48.5431 244.742 48.5427 244.742 48.5422 244.741C48.5417 244.741 48.541 244.74 48.5403 244.74C48.5397 244.74 48.539 244.74 48.5382 244.74C48.4776 244.629 48.4115 244.519 48.3509 244.409C48.3477 244.406 48.3458 244.402 48.3453 244.398C48.3013 244.26 48.2627 244.117 48.2296 243.974C48.2177 243.722 48.2195 243.47 48.2351 243.219C48.3091 242.866 48.4085 242.52 48.5327 242.183C48.6443 241.943 48.7713 241.711 48.913 241.488C48.924 241.466 48.9791 241.378 49.0397 241.279C49.0452 241.273 49.0452 241.273 49.0452 241.268C49.1279 241.174 49.2105 241.075 49.2987 240.987C49.4475 240.821 49.6073 240.678 49.7671 240.529C50.0779 240.326 50.3999 240.14 50.7315 239.973C51.2576 239.786 51.7975 239.64 52.3462 239.537C53.1553 239.473 53.9686 239.48 54.7764 239.559C55.5416 239.692 56.2966 239.878 57.0359 240.116C56.5878 240.986 56.0776 241.822 55.5094 242.618C55.4873 242.651 55.4653 242.684 55.4432 242.712V242.712ZM49.3152 240.899C49.2667 240.976 49.2094 241.049 49.1444 241.113C49.1881 241.032 49.246 240.959 49.3152 240.899V240.899Z" fill="#3F3D56"/>
<path d="M128.362 175.083C128.313 176.814 128.263 178.544 128.213 180.274C128.109 184.115 128 187.958 127.888 191.803C127.772 196.129 127.651 200.453 127.524 204.775C127.464 207.007 127.401 209.239 127.337 211.471C127.166 217.483 126.997 223.494 126.83 229.502C126.814 230.125 126.791 230.742 126.775 231.365C126.692 234.346 126.61 237.328 126.527 240.309C126.433 243.544 126.341 246.779 126.251 250.013C126.185 252.438 126.117 254.865 126.048 257.293C125.552 274.889 125.056 292.485 124.56 310.081C124.539 311.171 124.097 312.21 123.326 312.98C122.555 313.751 121.516 314.193 120.427 314.214C119.333 314.205 118.287 313.767 117.514 312.994C116.741 312.221 116.302 311.174 116.293 310.081C116.569 300.184 116.848 290.286 117.131 280.389C117.379 271.439 117.631 262.49 117.886 253.54C117.969 250.592 118.051 247.642 118.134 244.69C118.261 240.248 118.386 235.807 118.509 231.365C118.525 230.742 118.547 230.125 118.564 229.502C118.575 228.957 118.591 228.417 118.608 227.871C118.85 219.247 119.093 210.621 119.335 201.992C119.435 198.598 119.53 195.201 119.622 191.803C119.732 187.929 119.842 184.057 119.953 180.186C120.002 178.483 120.046 176.786 120.096 175.083C120.117 173.994 120.559 172.955 121.33 172.184C122.1 171.413 123.139 170.971 124.229 170.95C125.322 170.959 126.369 171.397 127.142 172.17C127.915 172.944 128.353 173.99 128.362 175.083V175.083Z" fill="#3F3D56"/>
<path d="M355.091 176.23C350.757 192.641 345.577 208.817 339.572 224.693C337.915 229.072 336.22 233.442 334.408 237.76L334.824 236.773C334.016 238.829 332.983 240.79 331.744 242.62C331.66 242.738 331.574 242.855 331.487 242.971C331.915 242.424 331.996 242.315 331.731 242.647C331.591 242.812 331.453 242.978 331.308 243.14C330.922 243.572 330.508 243.977 330.069 244.354C329.958 244.449 329.845 244.542 329.731 244.632L330.248 244.23C330.188 244.372 329.767 244.56 329.636 244.64C329.212 244.896 328.769 245.12 328.311 245.311L329.298 244.895C328.548 245.197 327.766 245.411 326.967 245.534L328.065 245.387C327.28 245.495 326.484 245.504 325.697 245.412L326.796 245.56C326.151 245.471 325.521 245.301 324.919 245.054L325.906 245.471C325.585 245.331 325.276 245.166 324.981 244.977C324.832 244.88 324.372 244.531 324.973 244.991C325.598 245.468 325.053 245.032 324.925 244.905C324.818 244.799 324.721 244.684 324.616 244.577C324.13 244.078 325.165 245.435 324.835 244.852C324.658 244.559 324.497 244.258 324.351 243.95L324.768 244.937C324.578 244.467 324.443 243.977 324.367 243.476L324.514 244.575C324.435 243.952 324.435 243.321 324.512 242.698L324.365 243.797C324.466 243.101 324.65 242.421 324.913 241.769L324.496 242.756C324.68 242.318 324.897 241.894 325.146 241.49C325.26 241.28 325.394 241.083 325.547 240.899C325.574 240.908 324.848 241.733 325.233 241.316C325.334 241.207 325.428 241.093 325.53 240.985C325.693 240.812 325.868 240.653 326.04 240.49C326.616 239.942 325.235 241.022 325.899 240.588C326.38 240.272 326.887 239.996 327.414 239.762L326.427 240.179C327.309 239.816 328.234 239.568 329.179 239.44L328.081 239.588C329.265 239.452 330.461 239.466 331.641 239.63L330.542 239.483C332.037 239.709 333.498 240.12 334.891 240.706L333.904 240.289C336.874 241.564 339.505 243.458 342.131 245.314C344.667 247.151 347.339 248.791 350.125 250.222C356.116 253.201 362.566 255.152 369.204 255.994C378.724 257.16 388.385 255.917 397.3 252.378C406.214 248.84 414.097 243.119 420.226 235.741C420.974 234.948 421.405 233.908 421.437 232.818C421.429 231.724 420.994 230.675 420.226 229.896C418.71 228.504 415.845 228.111 414.381 229.896C412.993 231.59 411.501 233.196 409.914 234.705C409.172 235.408 408.411 236.09 407.631 236.749C407.185 237.126 406.733 237.496 406.275 237.858C406.058 238.029 405.383 238.485 406.42 237.749C406.182 237.918 405.954 238.102 405.719 238.275C402.249 240.834 398.488 242.973 394.515 244.648L395.502 244.232C391.239 246.02 386.761 247.247 382.182 247.881L383.281 247.733C378.57 248.353 373.798 248.346 369.088 247.712L370.187 247.86C365.479 247.214 360.875 245.959 356.489 244.129L357.476 244.546C353.244 242.673 349.228 240.347 345.498 237.607C343.557 236.17 341.509 234.881 339.374 233.753C336.886 232.482 334.192 231.663 331.417 231.334C326.216 230.722 320.915 232.748 318.056 237.242C315.424 241.378 315.458 247.296 319.143 250.813C322.939 254.435 328.687 254.404 333.16 252.138C337.468 249.956 340.056 245.423 341.876 241.149C345.971 231.53 349.596 221.688 352.974 211.797C356.316 202.011 359.347 192.125 362.066 182.141C362.403 180.905 362.735 179.667 363.062 178.428C363.614 176.34 362.367 173.843 360.175 173.344C359.119 173.072 357.998 173.221 357.05 173.759C356.101 174.298 355.399 175.184 355.091 176.23L355.091 176.23Z" fill="#3F3D56"/>
<path d="M396.33 175.083L394.842 227.873L393.362 280.387L392.525 310.081C392.535 311.175 392.973 312.22 393.746 312.994C394.519 313.767 395.565 314.205 396.658 314.214C397.748 314.193 398.787 313.751 399.558 312.981C400.328 312.21 400.771 311.171 400.792 310.081L402.279 257.292L403.759 204.777L404.596 175.083C404.587 173.99 404.148 172.944 403.375 172.171C402.602 171.398 401.556 170.959 400.463 170.95C399.373 170.971 398.334 171.413 397.564 172.184C396.793 172.954 396.351 173.993 396.33 175.083V175.083Z" fill="#3F3D56"/>
<path d="M245.433 277.821C243.817 285.028 239.947 291.533 234.384 296.392C233.976 296.745 233.568 297.086 233.144 297.423C232.113 297.516 231.09 297.612 230.074 297.709C229.231 297.786 228.399 297.869 227.573 297.946L227.424 297.963L227.319 297.059L226.9 293.4C225.275 290.747 224.268 287.763 223.954 284.669C223.639 281.574 224.024 278.448 225.082 275.523C226.537 271.599 229.171 268.133 231.761 264.694C235.337 259.944 238.815 255.249 238.941 249.457C240.701 251.709 242.164 254.178 243.295 256.803C242.228 257.305 241.27 258.011 240.473 258.88C240.247 259.128 240.021 259.475 240.176 259.773C240.308 260.026 240.639 260.087 240.925 260.12C241.614 260.192 242.308 260.263 242.997 260.335C243.548 260.396 244.099 260.451 244.65 260.511C245.317 262.7 245.769 264.948 246.001 267.224C246.372 270.764 246.18 274.34 245.433 277.821V277.821Z" fill="#3F3D56"/>
<path d="M263.729 263.377C260.478 265.741 258.577 269.141 257.1 272.889C255.586 273.373 254.224 274.243 253.149 275.413C252.923 275.661 252.697 276.008 252.851 276.305C252.983 276.559 253.314 276.619 253.6 276.653C254.289 276.724 254.984 276.796 255.672 276.867C254.196 281.298 252.84 285.883 250.228 289.625C248.491 292.095 246.226 294.149 243.598 295.637C242.882 296.045 242.142 296.412 241.383 296.734C238.584 296.949 235.837 297.178 233.144 297.423C232.114 297.516 231.091 297.612 230.075 297.709C229.232 297.786 228.4 297.869 227.573 297.946C227.567 297.643 227.567 297.34 227.573 297.037C227.747 288.963 230.718 281.199 235.977 275.071C236.225 274.784 236.478 274.503 236.737 274.222C239.402 271.376 242.535 269.009 246.001 267.224C251.462 264.384 257.583 263.056 263.729 263.377V263.377Z" fill="#27BC48"/>
<path d="M231.028 294.882L230.394 296.756L230.075 297.709C229.232 297.786 228.4 297.869 227.573 297.946L227.424 297.963C226.509 298.056 225.6 298.15 224.691 298.244C224.454 297.968 224.217 297.687 223.985 297.401C218.233 290.435 215.472 281.476 216.306 272.481C217.139 263.486 221.499 255.187 228.433 249.396C227.705 253.204 228.554 256.852 229.948 260.473C229.799 260.534 229.656 260.594 229.518 260.66C228.451 261.163 227.493 261.868 226.697 262.738C226.471 262.986 226.245 263.333 226.399 263.631C226.531 263.884 226.862 263.945 227.149 263.978C227.837 264.049 228.532 264.121 229.221 264.193C229.772 264.253 230.323 264.308 230.874 264.369C231.133 264.397 231.392 264.424 231.651 264.452C231.689 264.534 231.723 264.611 231.761 264.694C233.332 268.1 235.023 271.522 235.977 275.071C236.216 275.961 236.404 276.865 236.539 277.777C236.963 280.859 236.688 283.997 235.734 286.958C234.78 289.919 233.172 292.628 231.028 294.882V294.882Z" fill="#516FD5"/>
<path d="M286.498 214.954C281.754 205.7 274.404 197.914 265.76 192.192C257.088 186.479 247.137 182.999 236.794 182.064C235.438 181.941 234.079 181.868 232.717 181.847C231.107 181.823 206.89 188.808 198.777 194.512C190.669 200.147 183.999 207.608 179.306 216.295C174.621 225.029 172.316 234.842 172.624 244.749C173.026 254.715 175.803 264.441 180.726 273.116C185.582 281.763 192.476 289.093 200.81 294.468C209.262 299.861 217.753 314.161 227.733 314.666C237.787 315.175 249.254 301.685 258.425 297.59C267.595 293.46 275.524 286.999 281.419 278.85C287.148 270.865 290.854 261.609 292.22 251.876C293.638 241.911 292.977 231.633 289.574 222.109C288.7 219.661 287.673 217.272 286.499 214.954C285.518 213.022 282.643 212.311 280.844 213.471C279.917 214.042 279.245 214.948 278.969 216.002C278.693 217.055 278.833 218.174 279.361 219.126C279.937 220.261 280.472 221.414 280.967 222.586L280.551 221.598C282.424 226.103 283.699 230.835 284.34 235.672L284.193 234.573C284.875 239.821 284.863 245.135 284.156 250.379L284.304 249.281C283.589 254.524 282.19 259.652 280.141 264.531L280.557 263.544C279.503 266.034 278.275 268.446 276.881 270.762C276.174 271.933 275.425 273.075 274.632 274.191C274.284 274.68 273.925 275.161 273.564 275.641C273.092 276.267 274.207 274.823 273.719 275.437C273.636 275.542 273.553 275.647 273.47 275.751C273.22 276.064 272.966 276.374 272.709 276.681C270.99 278.731 269.115 280.644 267.101 282.403C266.599 282.841 266.088 283.269 265.57 283.688C265.311 283.896 265.056 284.114 264.787 284.308C264.797 284.3 265.657 283.647 265.148 284.026C264.988 284.145 264.829 284.266 264.669 284.385C263.6 285.177 262.502 285.929 261.376 286.64C258.785 288.273 256.065 289.695 253.245 290.891L254.232 290.474C249.367 292.522 244.254 293.921 239.024 294.636L240.123 294.488C234.896 295.194 229.598 295.204 224.368 294.516L225.467 294.663C220.714 294.025 216.065 292.768 211.638 290.925L212.625 291.341C210.061 290.259 207.588 288.97 205.232 287.489C204.065 286.754 202.929 285.974 201.824 285.148C201.666 285.03 201.51 284.911 201.353 284.792C200.848 284.412 201.715 285.073 201.722 285.078C201.429 284.867 201.146 284.642 200.876 284.403C200.342 283.968 199.817 283.523 199.299 283.068C197.23 281.246 195.297 279.273 193.517 277.166C193.071 276.64 192.635 276.105 192.208 275.563C192.024 275.328 191.687 274.852 192.431 275.854C192.333 275.722 192.232 275.593 192.133 275.462C191.895 275.146 191.661 274.829 191.43 274.509C190.62 273.39 189.851 272.242 189.122 271.067C187.474 268.408 186.036 265.624 184.821 262.741L185.237 263.729C183.248 258.997 181.888 254.025 181.192 248.939L181.34 250.038C180.711 245.351 180.702 240.601 181.313 235.911L181.165 237.01C181.791 232.468 183.013 228.029 184.799 223.806L184.383 224.794C185.507 222.15 186.832 219.597 188.348 217.158C189.107 215.937 189.911 214.746 190.76 213.584C190.953 213.32 191.149 213.058 191.346 212.797C191.524 212.561 192.015 211.974 191.178 213.011C191.26 212.91 191.339 212.805 191.42 212.702C191.886 212.112 192.363 211.53 192.852 210.958C194.703 208.792 196.707 206.762 198.85 204.885C199.391 204.41 199.942 203.946 200.5 203.491C200.754 203.285 201.009 203.08 201.267 202.878C201.37 202.797 201.474 202.718 201.576 202.636C200.475 203.512 201.27 202.875 201.52 202.687C202.672 201.825 203.854 201.005 205.067 200.229C207.763 198.505 210.599 197.01 213.546 195.761L212.558 196.178C216.835 194.382 235.781 190.144 239.227 190.606L238.129 190.459C243.194 191.166 248.144 192.533 252.853 194.527L251.866 194.11C254.253 195.124 256.572 196.289 258.81 197.598C259.928 198.254 261.024 198.945 262.098 199.672C262.607 200.016 263.11 200.367 263.607 200.727C263.856 200.907 264.103 201.088 264.349 201.272C264.486 201.374 264.621 201.477 264.758 201.579C265.33 202.009 263.969 200.958 264.569 201.432C266.578 203.011 268.487 204.714 270.283 206.532C271.165 207.43 272.016 208.357 272.838 209.312C273.259 209.802 273.672 210.299 274.076 210.804C274.277 211.055 274.96 211.962 274.122 210.851C274.327 211.122 274.534 211.392 274.736 211.666C276.478 214.023 278.024 216.518 279.361 219.126C280.349 221.054 283.211 221.772 285.016 220.609C285.943 220.038 286.615 219.132 286.891 218.079C287.167 217.025 287.027 215.906 286.498 214.954Z" fill="#3F3D56"/>
<path d="M52.4896 247.985C55.8375 247.985 58.5515 245.271 58.5515 241.923C58.5515 238.576 55.8375 235.862 52.4896 235.862C49.1417 235.862 46.4277 238.576 46.4277 241.923C46.4277 245.271 49.1417 247.985 52.4896 247.985Z" fill="#3F3D56"/>
<path d="M125.232 314.115C128.58 314.115 131.294 311.401 131.294 308.053C131.294 304.705 128.58 301.991 125.232 301.991C121.884 301.991 119.17 304.705 119.17 308.053C119.17 311.401 121.884 314.115 125.232 314.115Z" fill="#3F3D56"/>
<path d="M401.322 314.115C404.67 314.115 407.384 311.401 407.384 308.053C407.384 304.705 404.67 301.991 401.322 301.991C397.974 301.991 395.26 304.705 395.26 308.053C395.26 311.401 397.974 314.115 401.322 314.115Z" fill="#3F3D56"/>
<path d="M416.202 236.964C419.549 236.964 422.263 234.25 422.263 230.902C422.263 227.554 419.549 224.84 416.202 224.84C412.854 224.84 410.14 227.554 410.14 230.902C410.14 234.25 412.854 236.964 416.202 236.964Z" fill="#3F3D56"/>
<path d="M398.567 180.754C401.915 180.754 404.629 178.04 404.629 174.692C404.629 171.344 401.915 168.63 398.567 168.63C395.219 168.63 392.505 171.344 392.505 174.692C392.505 178.04 395.219 180.754 398.567 180.754Z" fill="#3F3D56"/>
<path d="M145.622 230.902C145.618 232.45 145.019 233.938 143.949 235.057C142.879 236.177 141.42 236.842 139.873 236.915C138.326 236.988 136.811 236.464 135.64 235.451C134.469 234.437 133.732 233.013 133.583 231.472C133.433 229.93 133.881 228.391 134.835 227.171C135.789 225.951 137.175 225.145 138.707 224.919C140.239 224.693 141.799 225.064 143.064 225.956C144.33 226.848 145.204 228.193 145.506 229.712C145.584 230.104 145.623 230.502 145.622 230.902V230.902Z" fill="#3F3D56"/>
<path d="M266.859 198.388C270.207 198.388 272.921 195.674 272.921 192.327C272.921 188.979 270.207 186.265 266.859 186.265C263.511 186.265 260.797 188.979 260.797 192.327C260.797 195.674 263.511 198.388 266.859 198.388Z" fill="#3F3D56"/>
<path d="M206.792 192.327C206.788 193.875 206.189 195.363 205.119 196.482C204.049 197.601 202.59 198.266 201.043 198.339C199.496 198.413 197.981 197.888 196.81 196.875C195.639 195.862 194.902 194.437 194.752 192.896C194.603 191.355 195.051 189.815 196.005 188.596C196.959 187.376 198.345 186.569 199.877 186.343C201.409 186.117 202.969 186.489 204.234 187.381C205.5 188.273 206.374 189.617 206.676 191.136C206.754 191.528 206.792 191.927 206.792 192.327V192.327Z" fill="#3F3D56"/>
<path d="M128.538 174.692C128.535 176.24 127.936 177.728 126.866 178.847C125.796 179.967 124.336 180.632 122.79 180.705C121.243 180.778 119.727 180.254 118.556 179.241C117.385 178.227 116.649 176.803 116.499 175.262C116.349 173.721 116.798 172.181 117.751 170.961C118.705 169.741 120.092 168.935 121.623 168.709C123.155 168.483 124.715 168.854 125.981 169.746C127.247 170.638 128.121 171.983 128.423 173.502C128.5 173.894 128.539 174.292 128.538 174.692V174.692Z" fill="#3F3D56"/>
<path d="M330.233 250.19C333.581 250.19 336.295 247.476 336.295 244.128C336.295 240.78 333.581 238.066 330.233 238.066C326.885 238.066 324.171 240.78 324.171 244.128C324.171 247.476 326.885 250.19 330.233 250.19Z" fill="#3F3D56"/>
<path d="M234.896 195.082C239.766 195.082 243.714 191.134 243.714 186.265C243.714 181.395 239.766 177.447 234.896 177.447C230.027 177.447 226.079 181.395 226.079 186.265C226.079 191.134 230.027 195.082 234.896 195.082Z" fill="#3F3D56"/>
</g>
<defs>
<clipPath id="clip0_613_80">
<rect width="474" height="314.747" fill="white"/>
</clipPath>
</defs>
</svg>
