<svg width="81" height="83" viewBox="0 0 81 83" fill="none" xmlns="http://www.w3.org/2000/svg">
<path d="M64.3842 0.212891L80.7906 17.3152V82.3511H19.5024V82.5634H80.9999V17.5304L64.3842 0.212891Z" fill="#909090"/>
<path d="M64.1808 0H19.2932V82.3505H80.7907V17.3175L64.1779 0" fill="#F4F4F4"/>
<path d="M18.842 4.42285H0V24.5534H59.2683V4.42285H18.842Z" fill="#7A7B7C"/>
<path d="M59.5838 24.2117H0.383301V4.06641H59.5838V24.2117Z" fill="#DD2025"/>
<path d="M20.0126 7.47238H16.1587V21.626H19.1899V16.8521L19.8593 16.8904C20.5097 16.8792 21.1539 16.7627 21.7671 16.5454C22.3046 16.3606 22.7991 16.0687 23.2208 15.6874C23.6498 15.3242 23.988 14.8658 24.2086 14.3487C24.5043 13.4891 24.6099 12.5756 24.5182 11.6713C24.4998 11.0253 24.3865 10.3854 24.182 9.77235C23.9959 9.32977 23.7196 8.9308 23.3709 8.60082C23.0221 8.27084 22.6085 8.01709 22.1563 7.85571C21.7653 7.71417 21.3614 7.61145 20.9503 7.54905C20.639 7.50102 20.3246 7.47539 20.0097 7.47238M19.4524 14.2366H19.1899V9.8726H19.759C20.0102 9.85449 20.2622 9.89304 20.4965 9.98542C20.7307 10.0778 20.9413 10.2216 21.1125 10.4063C21.4672 10.8811 21.6568 11.459 21.6521 12.0517C21.6521 12.777 21.6521 13.4346 20.9975 13.8975C20.5259 14.1569 19.9891 14.2737 19.4524 14.2337M30.2769 7.43405C29.9496 7.43405 29.6312 7.45764 29.4071 7.46648L28.7053 7.48418H26.4053V21.6378H29.1122C30.1467 21.6662 31.1766 21.4908 32.1434 21.1218C32.9216 20.8131 33.6107 20.3156 34.1485 19.674C34.6715 19.0266 35.0469 18.2729 35.2484 17.4654C35.48 16.551 35.593 15.6105 35.5845 14.6671C35.6417 13.553 35.5555 12.4361 35.328 11.344C35.1121 10.5401 34.7078 9.79916 34.1485 9.18261C33.7098 8.68476 33.1726 8.28318 32.571 8.00314C32.0543 7.76406 31.5108 7.58784 30.9522 7.47828C30.73 7.44158 30.505 7.4248 30.2799 7.42815M29.7432 19.0371H29.4484V10.0023H29.4867C30.0946 9.9324 30.7096 10.0421 31.2559 10.3178C31.6559 10.6373 31.9819 11.0397 32.2113 11.4973C32.4588 11.9789 32.6015 12.5075 32.63 13.0483C32.6565 13.697 32.63 14.2278 32.63 14.6671C32.642 15.1732 32.6094 15.6794 32.5327 16.1798C32.4418 16.6936 32.2738 17.1906 32.0343 17.6541C31.7633 18.0851 31.3972 18.4482 30.964 18.7157C30.6002 18.951 30.1694 19.0607 29.7373 19.0282M44.7166 7.48418H37.5513V21.6378H40.5825V16.0235H44.4158V13.3933H40.5825V10.1144H44.7107V7.48418" fill="#464648"/>
<path d="M57.5463 53.8286C57.5463 53.8286 66.9467 52.1242 66.9467 55.3353C66.9467 58.5464 61.1231 57.2402 57.5463 53.8286ZM50.5963 54.0733C49.1028 54.4033 47.6473 54.8865 46.2529 55.5152L47.4324 52.8614C48.6118 50.2076 49.8355 46.5896 49.8355 46.5896C51.243 48.9583 52.8805 51.1826 54.7244 53.23C53.3339 53.4373 51.9558 53.7208 50.5963 54.0792V54.0733ZM46.8751 34.9069C46.8751 32.1087 47.7803 31.3449 48.485 31.3449C49.1898 31.3449 49.983 31.684 50.0095 34.1138C49.7799 36.5569 49.2683 38.9653 48.485 41.2908C47.4121 39.3383 46.8568 37.1436 46.8721 34.9158L46.8751 34.9069ZM33.1667 65.9152C30.2829 64.1902 39.2144 58.8796 40.8332 58.7086C40.8244 58.7116 36.1861 67.7198 33.1667 65.9152ZM69.6919 55.7157C69.6624 55.4209 69.397 52.1567 63.5881 52.2953C61.1669 52.2562 58.7468 52.4269 56.3551 52.8054C54.0382 50.4712 52.043 47.8384 50.4223 44.9767C51.4434 42.0263 52.0613 38.9515 52.2593 35.8358C52.1738 32.2974 51.3276 30.2687 48.6148 30.2982C45.902 30.3277 45.5069 32.7013 45.8637 36.2338C46.2132 38.6077 46.8724 40.9254 47.8245 43.1278C47.8245 43.1278 46.5714 47.0289 44.9142 50.9094C43.257 54.7898 42.1248 56.8244 42.1248 56.8244C39.2431 57.7625 36.5303 59.1562 34.0896 60.9526C31.6599 63.2142 30.6721 64.951 31.9518 66.6877C33.0546 68.1856 36.9145 68.5247 40.3644 64.0044C42.1975 61.6697 43.8721 59.2149 45.3771 56.6563C45.3771 56.6563 50.6376 55.2144 52.2741 54.8193C53.9106 54.4242 55.8892 54.1116 55.8892 54.1116C55.8892 54.1116 60.6925 58.9445 65.3249 58.7735C69.9573 58.6025 69.7332 56.0047 69.7037 55.7216" fill="#DD2025"/>
<path d="M63.9539 0.227539V17.5451H80.5637L63.9539 0.227539Z" fill="#909090"/>
<path d="M64.1808 0V17.3175H80.7907L64.1808 0Z" fill="#F4F4F4"/>
<path d="M19.7856 7.24484H15.9316V21.3985H18.9747V16.6275L19.647 16.6658C20.2974 16.6547 20.9416 16.5381 21.5548 16.3209C22.0923 16.1359 22.5868 15.844 23.0085 15.4628C23.4343 15.0986 23.7694 14.6403 23.9874 14.1241C24.2831 13.2645 24.3888 12.3511 24.297 11.4467C24.2786 10.8007 24.1653 10.1609 23.9609 9.54776C23.7747 9.10518 23.4985 8.70621 23.1497 8.37623C22.801 8.04625 22.3873 7.7925 21.9351 7.63112C21.5424 7.4882 21.1364 7.38449 20.7232 7.32151C20.4119 7.27348 20.0976 7.24786 19.7826 7.24484M19.2253 14.0091H18.9629V9.64506H19.5349C19.7861 9.62695 20.0381 9.66551 20.2724 9.75789C20.5066 9.85026 20.7172 9.9941 20.8884 10.1788C21.2431 10.6536 21.4327 11.2315 21.428 11.8241C21.428 12.5495 21.428 13.2071 20.7734 13.67C20.3018 13.9294 19.765 14.0462 19.2283 14.0061M30.0499 7.20651C29.7226 7.20651 29.4041 7.2301 29.18 7.23895L28.4871 7.25664H26.1871V21.4103H28.894C29.9285 21.4386 30.9584 21.2633 31.9252 20.8942C32.7034 20.5856 33.3925 20.088 33.9303 19.4464C34.4533 18.7991 34.8287 18.0453 35.0302 17.2379C35.2618 16.3234 35.3748 15.3829 35.3663 14.4396C35.4235 13.3255 35.3373 12.2086 35.1098 11.1164C34.8939 10.3125 34.4896 9.57162 33.9303 8.95507C33.4915 8.45723 32.9544 8.05564 32.3528 7.7756C31.8361 7.53652 31.2926 7.3603 30.734 7.25074C30.5118 7.21404 30.2868 7.19727 30.0617 7.20061M29.525 18.8095H29.2301V9.7748H29.2685C29.8764 9.70486 30.4914 9.81455 31.0377 10.0903C31.4377 10.4097 31.7637 10.8121 31.9931 11.2698C32.2406 11.7514 32.3833 12.28 32.4118 12.8208C32.4383 13.4695 32.4118 14.0002 32.4118 14.4396C32.4238 14.9457 32.3912 15.4519 32.3145 15.9523C32.2236 16.466 32.0556 16.9631 31.8161 17.4266C31.5451 17.8576 31.179 18.2207 30.7458 18.4881C30.382 18.7234 29.9512 18.8332 29.5191 18.8007M44.4895 7.25664H37.3243V21.4103H40.3555V15.796H44.1888V13.1658H40.3555V9.88685H44.4836V7.25664" fill="white"/>
</svg>
