<svg width="22" height="22" viewBox="0 0 22 22" fill="none" xmlns="http://www.w3.org/2000/svg">
<path d="M17.6932 15.0499V9.47588C17.6932 6.05342 15.8649 3.18836 12.6766 2.43029V1.67221C12.6766 0.746923 11.9185 0 10.9932 0C10.0679 0 9.33215 0.746923 9.33215 1.67221V2.43029C6.13265 3.18836 4.31551 6.04227 4.31551 9.47588V15.0499L2.86625 16.488C2.16392 17.1904 2.65444 18.3944 3.64662 18.3944H18.3287C19.3208 18.3944 19.8225 17.1904 19.1202 16.488L17.6932 15.0499ZM10.9932 21.7388C12.2195 21.7388 13.2228 20.7355 13.2228 19.5092H8.7636C8.7636 20.1005 8.99851 20.6676 9.41664 21.0858C9.83477 21.5039 10.4019 21.7388 10.9932 21.7388ZM5.17391 2.48603C5.64213 2.0624 5.65328 1.33777 5.20736 0.891848C5.00239 0.687897 4.72619 0.571564 4.43707 0.567404C4.14795 0.563244 3.86852 0.671582 3.65777 0.869552C1.71244 2.64351 0.427134 5.02546 0.012342 7.6253C-0.0879909 8.30533 0.43597 8.91848 1.12715 8.91848C1.66226 8.91848 2.13048 8.5283 2.21967 7.99319C2.5482 5.87449 3.59047 3.93154 5.17391 2.48603V2.48603ZM18.3621 0.869552C17.9162 0.457072 17.225 0.46822 16.8014 0.891848C16.3555 1.33777 16.3778 2.05125 16.8348 2.47488C18.3733 3.89069 19.4546 5.81931 19.7891 7.98204C19.8671 8.51715 20.3353 8.90733 20.8816 8.90733C21.5616 8.90733 22.0967 8.29419 21.9852 7.61415C21.5616 4.97205 20.2573 2.6198 18.3621 0.869552V0.869552Z" fill="#2F2E43"/>
</svg>
